<?xml version="1.0" encoding="UTF-8" standalone="no"?>
<!-- Created with Inkscape (http://www.inkscape.org/) -->

<svg
   xmlns:dc="http://purl.org/dc/elements/1.1/"
   xmlns:cc="http://creativecommons.org/ns#"
   xmlns:rdf="http://www.w3.org/1999/02/22-rdf-syntax-ns#"
   xmlns:svg="http://www.w3.org/2000/svg"
   xmlns="http://www.w3.org/2000/svg"
   xmlns:sodipodi="http://sodipodi.sourceforge.net/DTD/sodipodi-0.dtd"
   xmlns:inkscape="http://www.inkscape.org/namespaces/inkscape"
   width="319.99908"
   height="30.056999"
   viewBox="0 0 84.666427 7.9525812"
   version="1.1"
   id="svg8"
   inkscape:version="0.92.3 (2405546, 2018-03-11)"
   sodipodi:docname="logo_outlined.svg">
  <defs
     id="defs2" />
  <sodipodi:namedview
     id="base"
     pagecolor="#ffffff"
     bordercolor="#666666"
     borderopacity="1.0"
     inkscape:pageopacity="0.0"
     inkscape:pageshadow="2"
     inkscape:zoom="0.35"
     inkscape:cx="-365.85381"
     inkscape:cy="-356.73095"
     inkscape:document-units="mm"
     inkscape:current-layer="g341"
     showgrid="false"
     inkscape:window-width="1920"
     inkscape:window-height="976"
     inkscape:window-x="3840"
     inkscape:window-y="520"
     inkscape:window-maximized="1"
     inkscape:snap-page="true"
     units="px"
     fit-margin-top="0"
     fit-margin-left="0"
     fit-margin-right="0"
     fit-margin-bottom="0" />
  <metadata
     id="metadata5">
    <rdf:RDF>
      <cc:Work
         rdf:about="">
        <dc:format>image/svg+xml</dc:format>
        <dc:type
           rdf:resource="http://purl.org/dc/dcmitype/StillImage" />
        <dc:title></dc:title>
      </cc:Work>
    </rdf:RDF>
  </metadata>
  <g
     inkscape:label="レイヤー 1"
     inkscape:groupmode="layer"
     id="layer1"
     transform="translate(-61.269056,-46.495685)">
    <g
       aria-label="Cutie"
       style="font-style:normal;font-variant:normal;font-weight:normal;font-stretch:normal;font-size:25.69833374px;line-height:1.25;font-family:Chilanka;-inkscape-font-specification:'Chilanka, Normal';font-variant-ligatures:normal;font-variant-caps:normal;font-variant-numeric:normal;font-feature-settings:normal;text-align:center;letter-spacing:0px;word-spacing:0px;writing-mode:lr-tb;text-anchor:middle;fill:#000000;fill-opacity:1;stroke:none;stroke-width:0.64245832"
       id="text20" />
  </g>
  <g
     inkscape:groupmode="layer"
     id="layer2"
     inkscape:label="Layer 1"
     transform="translate(-61.269056,-46.495685)">
    <g
       id="g341"
       transform="matrix(0.33,0,0,0.33,70.42353,47.258404)">
      <path
         id="path146"
         style="font-style:normal;font-variant:normal;font-weight:normal;font-stretch:normal;font-size:25.69833374px;line-height:1.25;font-family:Chilanka;-inkscape-font-specification:'Chilanka, Normal';font-variant-ligatures:normal;font-variant-caps:normal;font-variant-numeric:normal;font-feature-settings:normal;text-align:center;letter-spacing:0px;word-spacing:0px;writing-mode:lr-tb;text-anchor:middle;fill:#000000;fill-opacity:1;stroke:none;stroke-width:0.82631606"
         d="m -9.2611662,-1.4011216 q 0.258136,0.3550496 0.1774926,0.77466526 -0.081029,0.41961571 -0.4518344,0.67784174 -0.3551139,0.2420845 -0.774794,0.16138967 -5.245164,-0.98447953 -9.392832,1.45250703 -2.985734,1.7591447 -4.615708,4.8094197 -1.613897,3.0502621 -1.258911,6.0682542 0.355113,3.017991 2.679109,4.777149 4.163874,3.16324 12.749757,1.129728 0.4196805,-0.09685 0.7908716,0.129106 0.3711911,0.225943 0.4680403,0.645559 0.096463,0.419616 -0.1291323,0.790807 -0.2259815,0.371204 -0.6455329,0.46804 -9.5543757,2.259455 -14.4927867,-1.48479 -3.0503,-2.30788 -3.502263,-6.084396 -0.435758,-3.7926693 1.468687,-7.3916537 1.920521,-3.5989972 5.438862,-5.66479264 4.809407,-2.82431916 10.829236,-1.69459146 0.4195514,0.064566 0.6617388,0.4357572 z"
         inkscape:connector-curvature="0" />
      <path
         id="path148"
         style="font-style:normal;font-variant:normal;font-weight:normal;font-stretch:normal;font-size:25.69833374px;line-height:1.25;font-family:Chilanka;-inkscape-font-specification:'Chilanka, Normal';font-variant-ligatures:normal;font-variant-caps:normal;font-variant-numeric:normal;font-feature-settings:normal;text-align:center;letter-spacing:0px;word-spacing:0px;writing-mode:lr-tb;text-anchor:middle;fill:#000000;fill-opacity:1;stroke:none;stroke-width:0.82631606"
         d="m 5.9417197,5.9582497 q 0.2097757,-0.8069483 0.9360806,-0.8876431 0.4357573,-0.032283 0.7746653,0.2420845 0.338908,0.2743675 0.3711911,0.6939832 0.3549852,3.4537363 -0.1452096,6.3426217 0.096463,5.584085 1.0005182,7.246406 0.081029,0.16139 0.1291323,0.209801 0.3873969,0.209802 0.5003234,0.629417 0.1291323,0.403475 -0.064309,0.774679 -0.1936985,0.387332 -0.6132499,0.516439 -0.41968,0.129119 -0.9683637,-0.16139 -1.2104225,-0.629417 -1.7430289,-4.228414 -1.1619336,1.9851 -2.8726795,3.066416 -2.3885619,1.533202 -4.7287635,0.661688 -2.3239957,-0.871502 -3.4052859,-3.824941 -1.5978194,-4.341379 0.3872683,-11.7491747 0.1131837,-0.4196157 0.4842462,-0.6294172 0.3872683,-0.2259429 0.7907425,-0.1129264 0.41968,0.1129264 0.6455329,0.5003105 0.2259815,0.3711911 0.1131837,0.7908068 -1.8398782,6.616989 -0.4519631,10.490341 0.7263049,2.033512 2.13042589,2.549964 1.40412096,0.516452 2.90496251,-0.435757 2.7759589,-1.759145 3.6635506,-6.471728 -0.032154,-1.985101 0.048875,-4.3575337 z"
         inkscape:connector-curvature="0" />
      <path
         id="path150"
         style="font-style:normal;font-variant:normal;font-weight:normal;font-stretch:normal;font-size:25.69833374px;line-height:1.25;font-family:Chilanka;-inkscape-font-specification:'Chilanka, Normal';font-variant-ligatures:normal;font-variant-caps:normal;font-variant-numeric:normal;font-feature-settings:normal;text-align:center;letter-spacing:0px;word-spacing:0px;writing-mode:lr-tb;text-anchor:middle;fill:#000000;fill-opacity:1;stroke:none;stroke-width:0.82631606"
         d="m 12.720137,6.9750123 q -0.306625,-0.3227793 -0.306625,-0.742395 0,-0.4357572 0.306625,-0.742395 0.322702,-0.3066378 0.742382,-0.3066378 l 3.243871,0.016077 q 0.01672,-0.3550624 0.09646,-2.5015527 0.09646,-2.16261891 0.03215,-3.905635 -0.01672,-0.4357444 0.290547,-0.7423822 0.306625,-0.3227793 0.726177,-0.3389209 0.435757,-0.016206 0.74251,0.2904963 0.322703,0.2905091 0.338908,0.7262535 0.06431,1.80756939 -0.03215,3.9863299 -0.08103,2.1787604 -0.09646,2.5015398 l 2.436922,0.016206 q 0.435757,0 0.742382,0.3227794 0.306625,0.3066506 0.306625,0.742395 0,0.4196157 -0.322702,0.7262535 -0.306625,0.3066506 -0.726305,0.3066506 -1.258783,0 -2.501489,-0.016077 -0.225981,8.0856243 0.75846,10.9583683 0.355114,1.065174 0.758588,1.291117 0.419551,0.209802 0.548684,0.629417 0.129132,0.419616 -0.08103,0.806949 -0.193698,0.371204 -0.61325,0.50031 -0.41968,0.12912 -0.806948,-0.06457 -2.06586,-1.113586 -2.517694,-6.084396 -0.274471,-3.243934 -0.145338,-8.0533537 -1.597691,0 -3.179305,-0.016077 -0.435757,0 -0.742382,-0.3066378 z"
         inkscape:connector-curvature="0" />
      <path
         id="path152"
         style="font-style:normal;font-variant:normal;font-weight:normal;font-stretch:normal;font-size:25.69833374px;line-height:1.25;font-family:Chilanka;-inkscape-font-specification:'Chilanka, Normal';font-variant-ligatures:normal;font-variant-caps:normal;font-variant-numeric:normal;font-feature-settings:normal;text-align:center;letter-spacing:0px;word-spacing:0px;writing-mode:lr-tb;text-anchor:middle;fill:#000000;fill-opacity:1;stroke:none;stroke-width:0.82631606"
         d="m 27.826174,-0.96537721 q 0.629455,0.0160772 1.065213,0.38734549 Q 29.85975,0.26118682 29.58528,1.3263612 29.327144,2.375394 28.261931,2.746598 26.486619,3.6342411 25.760443,2.3108407 25.195553,1.2618079 25.986296,0.13208023 26.777167,-0.99764742 27.826174,-0.96537721 Z M 27.019225,21.177315 q -0.419551,0.129107 -0.806948,-0.08064 -0.371191,-0.209801 -0.500323,-0.613276 -0.113184,-0.403474 0.01672,-0.742395 0.322702,-0.726253 0.403474,-5.422708 0.09646,-4.6964413 0.04887,-8.4890984 0,-0.4357573 0.290548,-0.7423951 0.306625,-0.3227793 0.726176,-0.3227793 0.435757,-0.016077 0.742382,0.2904963 0.322831,0.3066506 0.322831,0.742395 0.06431,3.8249402 0.01672,6.3910455 -0.04887,2.566094 -0.06431,3.647409 -0.01543,1.081303 -0.08103,2.566094 -0.09646,2.469269 -1.113573,2.775907 z"
         inkscape:connector-curvature="0" />
      <path
         id="path154"
         style="font-style:normal;font-variant:normal;font-weight:normal;font-stretch:normal;font-size:25.69833374px;line-height:1.25;font-family:Chilanka;-inkscape-font-specification:'Chilanka, Normal';font-variant-ligatures:normal;font-variant-caps:normal;font-variant-numeric:normal;font-feature-settings:normal;text-align:center;letter-spacing:0px;word-spacing:0px;writing-mode:lr-tb;text-anchor:middle;fill:#000000;fill-opacity:1;stroke:none;stroke-width:0.82631606"
         d="m 35.169481,15.560947 q 0.225853,0.82309 0.742382,1.533202 1.291066,1.855981 4.083102,2.049654 2.808242,0.177531 6.762211,-1.791428 0.387397,-0.177531 0.806949,-0.03228 0.41968,0.12912 0.597172,0.516452 0.193699,0.387333 0.04888,0.806949 -0.129004,0.403474 -0.516401,0.597134 -4.470498,2.211043 -8.053406,1.968959 -3.566701,-0.242085 -5.454939,-2.905014 -1.597691,-2.275597 -1.242706,-5.309731 0.355114,-3.0341199 2.566183,-5.2451634 2.856602,-2.8404607 7.472311,-2.8404607 2.340201,0 3.80876,1.1297277 1.710746,1.3234003 1.484764,3.4376075 -0.209776,2.1142069 -2.598337,3.7281039 -3.518341,2.388562 -10.24827,2.388562 -0.129132,0 -0.258264,-0.03228 z m -0.177622,-1.968959 q 0.209776,-0.09685 0.435758,-0.09685 6.084395,0 9.086336,-2.033512 1.565407,-1.065175 1.69454,-2.2755968 0.08103,-0.8715017 -0.774666,-1.5170603 -0.839231,-0.6617002 -2.43705,-0.6617002 -3.776477,0 -6.003624,2.2271851 -1.807595,1.8075692 -2.001294,4.3575202 z"
         inkscape:connector-curvature="0" />
      <g
         id="text20-0"
         style="font-style:normal;font-variant:normal;font-weight:normal;font-stretch:normal;font-size:25.69833374px;line-height:1.25;font-family:Chilanka;-inkscape-font-specification:'Chilanka, Normal';font-variant-ligatures:normal;font-variant-caps:normal;font-variant-numeric:normal;font-feature-settings:normal;text-align:center;letter-spacing:0px;word-spacing:0px;writing-mode:lr-tb;text-anchor:middle;fill:#000000;fill-opacity:1;stroke:none;stroke-width:0.64245838"
         aria-label="Switches"
         transform="matrix(1.2861784,0,0,1.2861784,-34.249683,-5.6486743)">
        <path
           id="path129"
           style="font-style:normal;font-variant:normal;font-weight:normal;font-stretch:normal;font-size:25.69833374px;font-family:Chilanka;-inkscape-font-specification:'Chilanka, Normal';font-variant-ligatures:normal;font-variant-caps:normal;font-variant-numeric:normal;font-feature-settings:normal;text-align:center;writing-mode:lr-tb;text-anchor:middle;stroke-width:0.64245838"
           d="m 117.08462,6.936435 q 0.0126,0.3387964 -0.21331,0.5772086 -0.22587,0.2384123 -0.57721,0.2509603 -0.3388,0 -0.57721,-0.2258642 -1.31754,-1.2673495 -3.137,-1.9825863 -1.81947,-0.7277849 -3.86479,-0.7403329 -2.04533,-0.025096 -3.22484,0.865813 -0.74034,0.5521127 -1.01639,1.3928296 -0.27606,0.828169 -0.0251,1.681434 0.25096,0.853265 0.9662,1.5057619 0.71524,0.639949 1.84456,0.953649 1.14187,0.3137 3.4758,0.12548 2.74801,-0.08784 4.15339,0.639949 1.41793,0.727785 2.07042,2.045326 0.6525,1.317542 0.36389,2.572343 -0.56466,2.471959 -3.07426,3.613828 -1.95749,0.903457 -4.20358,0.690141 -4.09066,-0.388988 -6.81358,-2.773111 -0.25096,-0.225864 -0.27605,-0.564661 -0.0251,-0.338796 0.18822,-0.589756 0.22586,-0.250961 0.56466,-0.276057 0.3388,-0.0251 0.58976,0.200768 2.33393,2.032779 5.91011,2.384123 1.79437,0.175672 3.46325,-0.589756 1.66889,-0.777977 2.04533,-2.396671 0.17567,-0.752881 -0.23841,-1.568502 -0.40154,-0.815621 -1.38029,-1.317542 -0.97874,-0.50192 -3.27503,-0.43918 -2.59744,0.200768 -4.05301,-0.200768 -1.44302,-0.401537 -2.47195,-1.33009 -1.02894,-0.928553 -1.41793,-2.2460944 -0.38899,-1.3175415 0.0376,-2.6350831 0.43918,-1.3175415 1.5936,-2.1833545 1.6187,-1.2171574 4.09065,-1.1920614 2.47196,0.025096 4.58003,0.865813 2.10807,0.828169 3.66402,2.3088347 0.23841,0.2258643 0.23841,0.5772087 z"
           inkscape:connector-curvature="0" />
        <path
           id="path131"
           style="font-style:normal;font-variant:normal;font-weight:normal;font-stretch:normal;font-size:25.69833374px;font-family:Chilanka;-inkscape-font-specification:'Chilanka, Normal';font-variant-ligatures:normal;font-variant-caps:normal;font-variant-numeric:normal;font-feature-settings:normal;text-align:center;writing-mode:lr-tb;text-anchor:middle;stroke-width:0.64245838"
           d="m 127.77553,8.3920047 q 0.32625,0.012548 0.55211,0.2635083 0.23842,0.2509602 0.21332,0.7905249 -0.0126,0.5270166 -0.0878,1.6688861 -0.0627,1.129321 0.0627,2.421767 0.22587,2.534699 1.12932,4.090652 0.90346,1.543406 2.03278,1.744174 1.14187,0.200769 2.15826,-0.702688 1.02894,-0.903457 1.2548,-2.798208 0.3388,-2.760563 -1.41792,-6.0732387 -0.16313,-0.2886044 -0.0627,-0.6148527 0.10038,-0.3262484 0.38899,-0.4768246 0.30115,-0.1631242 0.6274,-0.06274 0.32624,0.087836 0.47682,0.3889885 2.00768,3.7644045 1.60615,7.0394365 -0.3137,2.509602 -1.85711,3.877336 -1.53086,1.367734 -3.43816,1.028937 -1.90729,-0.326248 -3.16209,-2.497055 -0.55212,-0.953649 -0.89091,-2.158258 -1.05404,3.312676 -2.57235,4.429449 -1.04148,0.765429 -2.13316,0.08784 -2.43431,-1.568502 -2.74801,-11.5316252 -0.0125,-0.3387964 0.21331,-0.5772087 0.23841,-0.2509602 0.56466,-0.2635083 0.3388,-0.012548 0.58976,0.2258643 0.25096,0.2258643 0.26351,0.5646607 0.21331,6.6128032 1.2297,9.0345702 0.38899,0.928553 0.76543,1.179513 0.0878,0.06274 0.11293,0.06274 0.0377,0 0.17568,-0.100385 1.06658,-0.790524 1.89475,-3.362867 0.82817,-2.572343 1.11677,-5.458387 0.0376,-0.7277845 0.0753,-1.2422531 0.0502,-0.5270166 0.2886,-0.7528809 0.25096,-0.2384123 0.57721,-0.2258642 z"
           inkscape:connector-curvature="0" />
        <path
           id="path133"
           style="font-style:normal;font-variant:normal;font-weight:normal;font-stretch:normal;font-size:25.69833374px;font-family:Chilanka;-inkscape-font-specification:'Chilanka, Normal';font-variant-ligatures:normal;font-variant-caps:normal;font-variant-numeric:normal;font-feature-settings:normal;text-align:center;writing-mode:lr-tb;text-anchor:middle;stroke-width:0.64245838"
           d="m 141.07643,3.8245274 q 0.48937,0.012548 0.82817,0.3011523 0.75288,0.6524968 0.53956,1.4806657 -0.20077,0.815621 -1.02894,1.1042253 -1.38028,0.6901408 -1.94494,-0.3387964 -0.43918,-0.8156209 0.17567,-1.6939819 0.61486,-0.8783611 1.43048,-0.853265 z m -0.6274,17.2158756 q -0.32625,0.100384 -0.6274,-0.06274 -0.28861,-0.163124 -0.38899,-0.476824 -0.0878,-0.313701 0.0126,-0.577209 0.25096,-0.564661 0.3137,-4.216133 0.0753,-3.651472 0.0376,-6.6002555 0,-0.3387964 0.22586,-0.5772087 0.23842,-0.2509603 0.56466,-0.2509603 0.3388,-0.012548 0.57721,0.2258643 0.25096,0.2384123 0.25096,0.5772087 0.0502,2.9738795 0.0126,4.9690135 -0.0376,1.995135 -0.0502,2.835851 -0.0126,0.840717 -0.0627,1.995135 -0.0753,1.919846 -0.86581,2.158258 z"
           inkscape:connector-curvature="0" />
        <path
           id="path135"
           style="font-style:normal;font-variant:normal;font-weight:normal;font-stretch:normal;font-size:25.69833374px;font-family:Chilanka;-inkscape-font-specification:'Chilanka, Normal';font-variant-ligatures:normal;font-variant-caps:normal;font-variant-numeric:normal;font-feature-settings:normal;text-align:center;writing-mode:lr-tb;text-anchor:middle;stroke-width:0.64245838"
           d="m 143.18449,9.9981505 q -0.23841,-0.2509603 -0.23841,-0.5772087 0,-0.3387963 0.23841,-0.5772086 0.25096,-0.2384123 0.57721,-0.2384123 l 2.52215,0.012548 q 0.0126,-0.2760563 0.0753,-1.9449422 0.0753,-1.681434 0.0251,-3.0366195 -0.0125,-0.3387964 0.22587,-0.5772087 0.23841,-0.2509603 0.56466,-0.2635083 0.3388,-0.012548 0.57721,0.2258642 0.25096,0.2258643 0.26351,0.5646607 0.0502,1.4053776 -0.0251,3.0993596 -0.0627,1.6939819 -0.0753,1.9449422 l 1.89475,0.012548 q 0.3388,0 0.57721,0.2509603 0.23841,0.2384123 0.23841,0.5772087 0,0.3262484 -0.25096,0.5646611 -0.23841,0.238412 -0.56466,0.238412 -0.97874,0 -1.94494,-0.01255 -0.17567,6.286555 0.58976,8.520102 0.27605,0.828169 0.58975,1.003841 0.32625,0.163124 0.42664,0.489372 0.10038,0.326249 -0.0627,0.627401 -0.15058,0.288604 -0.47683,0.388989 -0.32625,0.100384 -0.6274,-0.05019 -1.60615,-0.865813 -1.95749,-4.730602 -0.21332,-2.522151 -0.11293,-6.261459 -1.24226,0 -2.47196,-0.01255 -0.3388,0 -0.57721,-0.2384125 z"
           inkscape:connector-curvature="0" />
        <path
           id="path137"
           style="font-style:normal;font-variant:normal;font-weight:normal;font-stretch:normal;font-size:25.69833374px;font-family:Chilanka;-inkscape-font-specification:'Chilanka, Normal';font-variant-ligatures:normal;font-variant-caps:normal;font-variant-numeric:normal;font-feature-settings:normal;text-align:center;writing-mode:lr-tb;text-anchor:middle;stroke-width:0.64245838"
           d="m 162.52098,9.3832978 q 0.16312,0.3011523 0.0627,0.6274012 -0.0878,0.3137 -0.38899,0.476824 -0.30115,0.163124 -0.61485,0.06274 -2.39667,-0.7277847 -4.27887,0.614853 -1.44303,1.016389 -2.13317,2.823303 -0.67759,1.806914 -0.23841,3.28758 0.43918,1.468118 1.81946,1.95749 1.81947,0.639949 4.88118,-0.476824 0.3137,-0.12548 0.61485,0.0251 0.3137,0.138028 0.42664,0.451728 0.11293,0.313701 -0.0377,0.627401 -0.13803,0.3137 -0.45173,0.426632 -3.60128,1.317542 -5.87247,0.527017 -2.27119,-0.803073 -2.91114,-2.936235 -0.6274,-2.145711 0.23842,-4.441998 0.86581,-2.296286 2.72292,-3.6138277 2.53469,-1.7943661 5.68425,-0.8281689 0.32624,0.087836 0.47682,0.3889884 z"
           inkscape:connector-curvature="0" />
        <path
           id="path139"
           style="font-style:normal;font-variant:normal;font-weight:normal;font-stretch:normal;font-size:25.69833374px;font-family:Chilanka;-inkscape-font-specification:'Chilanka, Normal';font-variant-ligatures:normal;font-variant-caps:normal;font-variant-numeric:normal;font-feature-settings:normal;text-align:center;writing-mode:lr-tb;text-anchor:middle;stroke-width:0.64245838"
           d="M 165.269,17.740275 165.2313,3.4104429 q 0,-0.3262484 0.23841,-0.5646607 0.23842,-0.2509603 0.56467,-0.2509603 0.33879,0 0.5772,0.2509603 0.25096,0.2384123 0.25096,0.5646607 l 0.0125,7.4786171 q 1.43048,-2.4845073 3.55109,-2.7354676 2.13316,-0.2635083 3.85224,1.2297054 1.73163,1.4932142 2.28374,4.0530082 0.74033,3.463252 -1.10423,7.190013 -0.13802,0.288604 -0.46427,0.401536 -0.32625,0.112932 -0.6274,-0.03764 -0.28861,-0.150576 -0.40154,-0.464276 -0.11293,-0.326249 0.0376,-0.627401 1.5936,-3.212292 0.9662,-6.123431 -0.43918,-2.02023 -1.68143,-3.09936 -1.24226,-1.079129 -2.58489,-0.9160048 -1.34264,0.1631242 -2.34648,1.8445578 -1.305,2.183355 -1.45557,6.173624 v 2.45941 q 0,0.301153 -0.22587,0.552113 -0.22586,0.25096 -0.56466,0.263508 -0.32624,0.01255 -0.57721,-0.213316 -0.25096,-0.238412 -0.2635,-0.564661 -0.0502,-1.330089 0,-2.534699 z"
           inkscape:connector-curvature="0" />
        <path
           id="path141"
           style="font-style:normal;font-variant:normal;font-weight:normal;font-stretch:normal;font-size:25.69833374px;font-family:Chilanka;-inkscape-font-specification:'Chilanka, Normal';font-variant-ligatures:normal;font-variant-caps:normal;font-variant-numeric:normal;font-feature-settings:normal;text-align:center;writing-mode:lr-tb;text-anchor:middle;stroke-width:0.64245838"
           d="m 181.06695,16.673694 q 0.17567,0.639949 0.57721,1.192062 1.00384,1.443021 3.17464,1.593597 2.18336,0.138029 5.25762,-1.392829 0.30115,-0.138028 0.6274,-0.0251 0.32625,0.100384 0.46428,0.401536 0.15057,0.301153 0.0376,0.627401 -0.10038,0.3137 -0.40153,0.464277 -3.4758,1.719078 -6.26146,1.530857 -2.77311,-0.18822 -4.24123,-2.258642 -1.24226,-1.76927 -0.9662,-4.128297 0.27606,-2.359027 1.99513,-4.078105 2.221,-2.2084503 5.80974,-2.2084503 1.81946,0 2.96133,0.878361 1.33009,1.0289373 1.15441,2.6727273 -0.16312,1.64379 -2.02023,2.898591 -2.73546,1.857106 -7.96799,1.857106 -0.10038,0 -0.20076,-0.0251 z m -0.13803,-1.530858 q 0.16312,-0.07529 0.33879,-0.07529 4.73061,0 7.06454,-1.581049 1.21715,-0.828169 1.31754,-1.76927 0.0627,-0.677593 -0.60231,-1.179514 -0.65249,-0.514468 -1.89475,-0.514468 -2.93623,0 -4.66786,1.731626 -1.40538,1.405377 -1.55595,3.387963 z"
           inkscape:connector-curvature="0" />
        <path
           id="path143"
           style="font-style:normal;font-variant:normal;font-weight:normal;font-stretch:normal;font-size:25.69833374px;font-family:Chilanka;-inkscape-font-specification:'Chilanka, Normal';font-variant-ligatures:normal;font-variant-caps:normal;font-variant-numeric:normal;font-feature-settings:normal;text-align:center;writing-mode:lr-tb;text-anchor:middle;stroke-width:0.64245838"
           d="m 204.31842,11.027088 q 0.0126,0.338796 -0.22586,0.589756 -0.22587,0.238413 -0.56466,0.250961 -0.3388,0 -0.57721,-0.225865 -0.89091,-0.853265 -2.12062,-1.330089 -1.21715,-0.4893727 -2.20845,-0.5019207 -2.63508,-0.025096 -3.11191,1.4053777 -0.36389,1.091677 0.60231,1.970038 0.9662,0.878361 3.52599,0.677593 1.98259,-0.06274 3.02407,0.476825 1.04149,0.539564 1.53086,1.530857 0.50192,0.991293 0.27606,1.970039 -0.41409,1.83201 -2.27119,2.672727 -1.43048,0.652496 -3.01153,0.514468 -2.98642,-0.288604 -4.94391,-2.007682 -0.25096,-0.213316 -0.27606,-0.552113 -0.0126,-0.351344 0.20077,-0.602304 0.22586,-0.250961 0.56466,-0.263509 0.33879,-0.0251 0.58975,0.188221 1.56851,1.367733 3.77696,1.581049 2.221,0.213317 3.31267,-0.966197 0.79053,-0.865813 0.32625,-1.819462 -0.58976,-1.179513 -2.79821,-1.079129 -2.1959,0.08784 -3.19974,-0.175672 -0.99129,-0.276057 -1.75672,-0.966197 -0.76543,-0.702689 -1.05404,-1.681434 -0.2886,-0.991294 0.0376,-1.982587 0.32625,-0.9912928 1.09168,-1.5685015 1.30499,-0.9787451 3.08681,-0.9536491 3.57618,0.037644 5.92266,2.2837386 0.23841,0.225864 0.25096,0.564661 z"
           inkscape:connector-curvature="0" />
      </g>
      <g
         id="text3745"
         style="font-style:normal;font-variant:normal;font-weight:normal;font-stretch:normal;font-size:30.51245499px;line-height:1.25;font-family:'Heart Full';-inkscape-font-specification:'Heart Full, Normal';font-variant-ligatures:normal;font-variant-caps:normal;font-variant-numeric:normal;font-feature-settings:normal;text-align:start;letter-spacing:0px;word-spacing:0px;writing-mode:lr-tb;text-anchor:start;fill:#000000;fill-opacity:1;stroke:none;stroke-width:0.76281434"
         aria-label="t"
         transform="matrix(1.2861784,0,0,1.2861784,-34.249683,-5.6486743)">
        <path
           id="path126"
           d="m 83.392898,5.7691418 q 0.06103,0 0.122049,0 3.569958,-3.081758 6.224541,-3.081758 2.898684,0 4.393794,2.0138221 1.189986,1.6171601 1.189986,3.8140568 0,0.732299 -0.12205,1.3425481 -0.884861,3.3868822 -4.424306,6.7432522 -3.173296,3.020733 -6.895815,4.515844 -0.213587,0.09154 -0.396662,0.122049 -0.213587,0 -0.488199,-0.122049 -3.692007,-1.495111 -6.895815,-4.515844 -3.508932,-3.35637 -4.393794,-6.7432522 -0.152562,-0.6102491 -0.152562,-1.3425481 0,-2.1968967 1.189986,-3.8140568 1.49511,-2.0138221 4.424306,-2.0138221 2.654583,0 6.224541,3.081758 z m 0.945886,5.8583912 q -0.4882,0.274612 -0.884861,0.274612 -0.427175,0 -0.915374,-0.274612 -1.61716,-0.823836 -1.61716,-2.3494589 0,-1.4951103 1.220498,-2.7461209 -2.929196,-2.4715089 -4.97353,-2.4715089 -2.166384,0 -3.325858,1.4951103 -0.945886,1.2204982 -0.945886,2.8986832 0,0.5797367 0.152562,1.0374235 0.793324,3.1122707 4.088669,6.1940287 2.990221,2.776633 6.377103,4.180206 1.342549,-0.488199 4.088669,-2.471509 5.156605,-3.661494 6.255054,-7.9027257 0.12205,-0.4576868 0.12205,-1.0374235 0,-1.678185 -0.945887,-2.8986832 -1.12896,-1.4951103 -3.295345,-1.4951103 -1.434085,0 -2.929195,0.9458861 -0.457687,0.3051246 -2.135872,1.678185 1.312035,1.4645979 1.312035,2.7156085 0,1.4035731 -1.647672,2.2274091 z m 0.09154,-1.8002347 q 0.183075,-0.2440996 0.183075,-0.5187117 0,-0.7933239 -1.128961,-1.8917722 -0.06103,0 -0.09154,0 -1.128961,1.0984483 -1.128961,1.8612597 0,0.3051246 0.183075,0.5492242 0.457686,0.7322987 0.976398,0.7322987 0.518712,0 1.006911,-0.7322987 z"
           inkscape:connector-curvature="0" />
      </g>
    </g>
  </g>
</svg>
