<?xml version="1.0" encoding="UTF-8" standalone="no"?>
<!-- Created with Inkscape (http://www.inkscape.org/) -->

<svg
   xmlns:dc="http://purl.org/dc/elements/1.1/"
   xmlns:cc="http://creativecommons.org/ns#"
   xmlns:rdf="http://www.w3.org/1999/02/22-rdf-syntax-ns#"
   xmlns:svg="http://www.w3.org/2000/svg"
   xmlns="http://www.w3.org/2000/svg"
   xmlns:sodipodi="http://sodipodi.sourceforge.net/DTD/sodipodi-0.dtd"
   xmlns:inkscape="http://www.inkscape.org/namespaces/inkscape"
   width="753.93439"
   height="70.815849"
   viewBox="0 0 199.47848 18.736694"
   version="1.1"
   id="svg8"
   inkscape:version="0.92.3 (2405546, 2018-03-11)"
   sodipodi:docname="logo_outlined.svg">
  <defs
     id="defs2" />
  <sodipodi:namedview
     id="base"
     pagecolor="#ffffff"
     bordercolor="#666666"
     borderopacity="1.0"
     inkscape:pageopacity="0.0"
     inkscape:pageshadow="2"
     inkscape:zoom="0.35"
     inkscape:cx="-146.029"
     inkscape:cy="-336.35153"
     inkscape:document-units="mm"
     inkscape:current-layer="layer2"
     showgrid="false"
     inkscape:window-width="3840"
     inkscape:window-height="2083"
     inkscape:window-x="0"
     inkscape:window-y="0"
     inkscape:window-maximized="1"
     inkscape:snap-page="true"
     units="px"
     fit-margin-top="0"
     fit-margin-left="0"
     fit-margin-right="0"
     fit-margin-bottom="0" />
  <metadata
     id="metadata5">
    <rdf:RDF>
      <cc:Work
         rdf:about="">
        <dc:format>image/svg+xml</dc:format>
        <dc:type
           rdf:resource="http://purl.org/dc/dcmitype/StillImage" />
        <dc:title></dc:title>
      </cc:Work>
    </rdf:RDF>
  </metadata>
  <g
     inkscape:label="レイヤー 1"
     inkscape:groupmode="layer"
     id="layer1"
     transform="translate(-3.8630267,-41.103628)">
    <g
       aria-label="Cutie"
       style="font-style:normal;font-variant:normal;font-weight:normal;font-stretch:normal;font-size:25.69833374px;line-height:1.25;font-family:Chilanka;-inkscape-font-specification:'Chilanka, Normal';font-variant-ligatures:normal;font-variant-caps:normal;font-variant-numeric:normal;font-feature-settings:normal;text-align:center;letter-spacing:0px;word-spacing:0px;writing-mode:lr-tb;text-anchor:middle;fill:#000000;fill-opacity:1;stroke:none;stroke-width:0.64245832"
       id="text20" />
  </g>
  <g
     inkscape:groupmode="layer"
     id="layer2"
     inkscape:label="Layer 1"
     transform="translate(-3.8630267,-41.103628)">
    <g
       id="g341"
       transform="translate(3.0606415,40.73388)">
      <path
         id="path146"
         style="font-style:normal;font-variant:normal;font-weight:normal;font-stretch:normal;font-size:25.69833374px;line-height:1.25;font-family:Chilanka;-inkscape-font-specification:'Chilanka, Normal';font-variant-ligatures:normal;font-variant-caps:normal;font-variant-numeric:normal;font-feature-settings:normal;text-align:center;letter-spacing:0px;word-spacing:0px;writing-mode:lr-tb;text-anchor:middle;fill:#000000;fill-opacity:1;stroke:none;stroke-width:0.64245838"
         d="m 15.170271,1.0773862 q 0.2007,0.27605 0.138,0.6023 -0.063,0.32625 -0.3513,0.52702 -0.2761,0.18822 -0.6024,0.12548 -4.0781,-0.76543 -7.3028996,1.12932 -2.3214,1.36773 -3.5887,3.73931 -1.2548,2.37157 -0.9788,4.7180498 0.2761,2.34648 2.083,3.71422 3.2374,2.45941 9.9128996,0.87836 0.3263,-0.0753 0.6149,0.10038 0.2886,0.17567 0.3639,0.50192 0.075,0.32625 -0.1004,0.61485 -0.1757,0.28861 -0.5019,0.3639 -7.4284996,1.75672 -11.2680996,-1.15442 -2.3716,-1.79437 -2.72299997,-4.7306 -0.3388,-2.9487898 1.14189997,-5.7469898 1.4932,-2.79821 4.2287,-4.40436 3.7393,-2.19590001 8.4196996,-1.31754001 0.3262,0.0502 0.5145,0.33880001 z"
         inkscape:connector-curvature="0" />
      <path
         id="path148"
         style="font-style:normal;font-variant:normal;font-weight:normal;font-stretch:normal;font-size:25.69833374px;line-height:1.25;font-family:Chilanka;-inkscape-font-specification:'Chilanka, Normal';font-variant-ligatures:normal;font-variant-caps:normal;font-variant-numeric:normal;font-feature-settings:normal;text-align:center;letter-spacing:0px;word-spacing:0px;writing-mode:lr-tb;text-anchor:middle;fill:#000000;fill-opacity:1;stroke:none;stroke-width:0.64245838"
         d="m 26.990471,6.7992762 q 0.1631,-0.6274 0.7278,-0.69014 0.3388,-0.0251 0.6023,0.18822 0.2635,0.21332 0.2886,0.53957 0.276,2.68527 -0.1129,4.9313698 0.075,4.34161 0.7779,5.63406 0.063,0.12548 0.1004,0.16312 0.3012,0.16312 0.389,0.48937 0.1004,0.3137 -0.05,0.60231 -0.1506,0.30115 -0.4768,0.40153 -0.3263,0.10039 -0.7529,-0.12548 -0.9411,-0.48937 -1.3552,-3.28758 -0.9034,1.54341 -2.2335,2.38413 -1.8571,1.19206 -3.6766,0.51446 -1.8069,-0.67759 -2.6476,-2.97388 -1.2423,-3.37541 0.3011,-9.1349498 0.088,-0.32625 0.3765,-0.48937 0.3011,-0.17567 0.6148,-0.0878 0.3263,0.0878 0.5019,0.38899 0.1757,0.2886 0.088,0.61485 -1.4305,5.1446898 -0.3514,8.1562098 0.5647,1.58105 1.6564,1.98259 1.0917,0.40154 2.2586,-0.3388 2.1583,-1.36773 2.8484,-5.03175 -0.025,-1.54341 0.038,-3.3879698 z"
         inkscape:connector-curvature="0" />
      <path
         id="path150"
         style="font-style:normal;font-variant:normal;font-weight:normal;font-stretch:normal;font-size:25.69833374px;line-height:1.25;font-family:Chilanka;-inkscape-font-specification:'Chilanka, Normal';font-variant-ligatures:normal;font-variant-caps:normal;font-variant-numeric:normal;font-feature-settings:normal;text-align:center;letter-spacing:0px;word-spacing:0px;writing-mode:lr-tb;text-anchor:middle;fill:#000000;fill-opacity:1;stroke:none;stroke-width:0.64245838"
         d="m 32.260671,7.5898062 q -0.2384,-0.25096 -0.2384,-0.57721 0,-0.3388 0.2384,-0.57721 0.2509,-0.23841 0.5772,-0.23841 l 2.5221,0.0125 q 0.013,-0.27606 0.075,-1.94495 0.075,-1.68143 0.025,-3.03662 -0.013,-0.33879001 0.2259,-0.57720001 0.2384,-0.25096 0.5646,-0.26351 0.3388,-0.0126 0.5773,0.22586 0.2509,0.22587 0.2635,0.56466001 0.05,1.40538 -0.025,3.09936 -0.063,1.69398 -0.075,1.94494 l 1.8947,0.0126 q 0.3388,0 0.5772,0.25096 0.2384,0.23842 0.2384,0.57721 0,0.32625 -0.2509,0.56466 -0.2384,0.23842 -0.5647,0.23842 -0.9787,0 -1.9449,-0.0125 -0.1757,6.2865498 0.5897,8.5200998 0.2761,0.82817 0.5898,1.00384 0.3262,0.16312 0.4266,0.48937 0.1004,0.32625 -0.063,0.6274 -0.1506,0.28861 -0.4768,0.38899 -0.3263,0.10039 -0.6274,-0.0502 -1.6062,-0.86581 -1.9575,-4.7306 -0.2134,-2.52215 -0.113,-6.2614598 -1.2422,0 -2.4719,-0.0125 -0.3388,0 -0.5772,-0.23841 z"
         inkscape:connector-curvature="0" />
      <path
         id="path152"
         style="font-style:normal;font-variant:normal;font-weight:normal;font-stretch:normal;font-size:25.69833374px;line-height:1.25;font-family:Chilanka;-inkscape-font-specification:'Chilanka, Normal';font-variant-ligatures:normal;font-variant-caps:normal;font-variant-numeric:normal;font-feature-settings:normal;text-align:center;letter-spacing:0px;word-spacing:0px;writing-mode:lr-tb;text-anchor:middle;fill:#000000;fill-opacity:1;stroke:none;stroke-width:0.64245838"
         d="m 44.005571,1.4161762 q 0.4894,0.0125 0.8282,0.30116 0.7529,0.65249 0.5395,1.48066 -0.2007,0.81562 -1.0289,1.10423 -1.3803,0.69014 -1.9449,-0.3388 -0.4392,-0.81562 0.1756,-1.69398 0.6149,-0.87836 1.4305,-0.85327 z m -0.6274,17.2158798 q -0.3262,0.10038 -0.6274,-0.0627 -0.2886,-0.16312 -0.389,-0.47682 -0.088,-0.3137 0.013,-0.57721 0.2509,-0.56466 0.3137,-4.21614 0.075,-3.6514698 0.038,-6.6002498 0,-0.3388 0.2259,-0.57721 0.2384,-0.25096 0.5646,-0.25096 0.3388,-0.0125 0.5772,0.22586 0.251,0.23842 0.251,0.57721 0.05,2.97388 0.013,4.9690198 -0.038,1.99513 -0.05,2.83585 -0.012,0.84071 -0.063,1.99513 -0.075,1.91985 -0.8658,2.15826 z"
         inkscape:connector-curvature="0" />
      <path
         id="path154"
         style="font-style:normal;font-variant:normal;font-weight:normal;font-stretch:normal;font-size:25.69833374px;line-height:1.25;font-family:Chilanka;-inkscape-font-specification:'Chilanka, Normal';font-variant-ligatures:normal;font-variant-caps:normal;font-variant-numeric:normal;font-feature-settings:normal;text-align:center;letter-spacing:0px;word-spacing:0px;writing-mode:lr-tb;text-anchor:middle;fill:#000000;fill-opacity:1;stroke:none;stroke-width:0.64245838"
         d="m 49.714971,14.265346 q 0.1756,0.63995 0.5772,1.19206 1.0038,1.44302 3.1746,1.5936 2.1834,0.13803 5.2576,-1.39283 0.3012,-0.13803 0.6274,-0.0251 0.3263,0.10039 0.4643,0.40154 0.1506,0.30115 0.038,0.6274 -0.1003,0.3137 -0.4015,0.46427 -3.4758,1.71908 -6.2615,1.53086 -2.7731,-0.18822 -4.2412,-2.25864 -1.2422,-1.76927 -0.9662,-4.1283 0.2761,-2.3590198 1.9952,-4.0780998 2.221,-2.20845 5.8097,-2.20845 1.8195,0 2.9613,0.87836 1.3301,1.02894 1.1544,2.67273 -0.1631,1.6437898 -2.0202,2.8985898 -2.7355,1.8571 -7.968,1.8571 -0.1004,0 -0.2008,-0.0251 z m -0.1381,-1.53086 q 0.1631,-0.0753 0.3388,-0.0753 4.7306,0 7.0646,-1.58105 1.2171,-0.82817 1.3175,-1.7692698 0.063,-0.67759 -0.6023,-1.17951 -0.6525,-0.51447 -1.8948,-0.51447 -2.9362,0 -4.6678,1.73163 -1.4054,1.4053798 -1.556,3.3879598 z"
         inkscape:connector-curvature="0" />
      <g
         id="text20-0"
         style="font-style:normal;font-variant:normal;font-weight:normal;font-stretch:normal;font-size:25.69833374px;line-height:1.25;font-family:Chilanka;-inkscape-font-specification:'Chilanka, Normal';font-variant-ligatures:normal;font-variant-caps:normal;font-variant-numeric:normal;font-feature-settings:normal;text-align:center;letter-spacing:0px;word-spacing:0px;writing-mode:lr-tb;text-anchor:middle;fill:#000000;fill-opacity:1;stroke:none;stroke-width:0.64245838"
         aria-label="Switches"
         transform="translate(-4.2582286,-2.2250738)">
        <path
           id="path129"
           style="font-style:normal;font-variant:normal;font-weight:normal;font-stretch:normal;font-size:25.69833374px;font-family:Chilanka;-inkscape-font-specification:'Chilanka, Normal';font-variant-ligatures:normal;font-variant-caps:normal;font-variant-numeric:normal;font-feature-settings:normal;text-align:center;writing-mode:lr-tb;text-anchor:middle;stroke-width:0.64245838"
           d="m 117.08462,6.936435 q 0.0126,0.3387964 -0.21331,0.5772086 -0.22587,0.2384123 -0.57721,0.2509603 -0.3388,0 -0.57721,-0.2258642 -1.31754,-1.2673495 -3.137,-1.9825863 -1.81947,-0.7277849 -3.86479,-0.7403329 -2.04533,-0.025096 -3.22484,0.865813 -0.74034,0.5521127 -1.01639,1.3928296 -0.27606,0.828169 -0.0251,1.681434 0.25096,0.853265 0.9662,1.5057619 0.71524,0.639949 1.84456,0.953649 1.14187,0.3137 3.4758,0.12548 2.74801,-0.08784 4.15339,0.639949 1.41793,0.727785 2.07042,2.045326 0.6525,1.317542 0.36389,2.572343 -0.56466,2.471959 -3.07426,3.613828 -1.95749,0.903457 -4.20358,0.690141 -4.09066,-0.388988 -6.81358,-2.773111 -0.25096,-0.225864 -0.27605,-0.564661 -0.0251,-0.338796 0.18822,-0.589756 0.22586,-0.250961 0.56466,-0.276057 0.3388,-0.0251 0.58976,0.200768 2.33393,2.032779 5.91011,2.384123 1.79437,0.175672 3.46325,-0.589756 1.66889,-0.777977 2.04533,-2.396671 0.17567,-0.752881 -0.23841,-1.568502 -0.40154,-0.815621 -1.38029,-1.317542 -0.97874,-0.50192 -3.27503,-0.43918 -2.59744,0.200768 -4.05301,-0.200768 -1.44302,-0.401537 -2.47195,-1.33009 -1.02894,-0.928553 -1.41793,-2.2460944 -0.38899,-1.3175415 0.0376,-2.6350831 0.43918,-1.3175415 1.5936,-2.1833545 1.6187,-1.2171574 4.09065,-1.1920614 2.47196,0.025096 4.58003,0.865813 2.10807,0.828169 3.66402,2.3088347 0.23841,0.2258643 0.23841,0.5772087 z"
           inkscape:connector-curvature="0" />
        <path
           id="path131"
           style="font-style:normal;font-variant:normal;font-weight:normal;font-stretch:normal;font-size:25.69833374px;font-family:Chilanka;-inkscape-font-specification:'Chilanka, Normal';font-variant-ligatures:normal;font-variant-caps:normal;font-variant-numeric:normal;font-feature-settings:normal;text-align:center;writing-mode:lr-tb;text-anchor:middle;stroke-width:0.64245838"
           d="m 127.77553,8.3920047 q 0.32625,0.012548 0.55211,0.2635083 0.23842,0.2509602 0.21332,0.7905249 -0.0126,0.5270166 -0.0878,1.6688861 -0.0627,1.129321 0.0627,2.421767 0.22587,2.534699 1.12932,4.090652 0.90346,1.543406 2.03278,1.744174 1.14187,0.200769 2.15826,-0.702688 1.02894,-0.903457 1.2548,-2.798208 0.3388,-2.760563 -1.41792,-6.0732387 -0.16313,-0.2886044 -0.0627,-0.6148527 0.10038,-0.3262484 0.38899,-0.4768246 0.30115,-0.1631242 0.6274,-0.06274 0.32624,0.087836 0.47682,0.3889885 2.00768,3.7644045 1.60615,7.0394365 -0.3137,2.509602 -1.85711,3.877336 -1.53086,1.367734 -3.43816,1.028937 -1.90729,-0.326248 -3.16209,-2.497055 -0.55212,-0.953649 -0.89091,-2.158258 -1.05404,3.312676 -2.57235,4.429449 -1.04148,0.765429 -2.13316,0.08784 -2.43431,-1.568502 -2.74801,-11.5316252 -0.0125,-0.3387964 0.21331,-0.5772087 0.23841,-0.2509602 0.56466,-0.2635083 0.3388,-0.012548 0.58976,0.2258643 0.25096,0.2258643 0.26351,0.5646607 0.21331,6.6128032 1.2297,9.0345702 0.38899,0.928553 0.76543,1.179513 0.0878,0.06274 0.11293,0.06274 0.0377,0 0.17568,-0.100385 1.06658,-0.790524 1.89475,-3.362867 0.82817,-2.572343 1.11677,-5.458387 0.0376,-0.7277845 0.0753,-1.2422531 0.0502,-0.5270166 0.2886,-0.7528809 0.25096,-0.2384123 0.57721,-0.2258642 z"
           inkscape:connector-curvature="0" />
        <path
           id="path133"
           style="font-style:normal;font-variant:normal;font-weight:normal;font-stretch:normal;font-size:25.69833374px;font-family:Chilanka;-inkscape-font-specification:'Chilanka, Normal';font-variant-ligatures:normal;font-variant-caps:normal;font-variant-numeric:normal;font-feature-settings:normal;text-align:center;writing-mode:lr-tb;text-anchor:middle;stroke-width:0.64245838"
           d="m 141.07643,3.8245274 q 0.48937,0.012548 0.82817,0.3011523 0.75288,0.6524968 0.53956,1.4806657 -0.20077,0.815621 -1.02894,1.1042253 -1.38028,0.6901408 -1.94494,-0.3387964 -0.43918,-0.8156209 0.17567,-1.6939819 0.61486,-0.8783611 1.43048,-0.853265 z m -0.6274,17.2158756 q -0.32625,0.100384 -0.6274,-0.06274 -0.28861,-0.163124 -0.38899,-0.476824 -0.0878,-0.313701 0.0126,-0.577209 0.25096,-0.564661 0.3137,-4.216133 0.0753,-3.651472 0.0376,-6.6002555 0,-0.3387964 0.22586,-0.5772087 0.23842,-0.2509603 0.56466,-0.2509603 0.3388,-0.012548 0.57721,0.2258643 0.25096,0.2384123 0.25096,0.5772087 0.0502,2.9738795 0.0126,4.9690135 -0.0376,1.995135 -0.0502,2.835851 -0.0126,0.840717 -0.0627,1.995135 -0.0753,1.919846 -0.86581,2.158258 z"
           inkscape:connector-curvature="0" />
        <path
           id="path135"
           style="font-style:normal;font-variant:normal;font-weight:normal;font-stretch:normal;font-size:25.69833374px;font-family:Chilanka;-inkscape-font-specification:'Chilanka, Normal';font-variant-ligatures:normal;font-variant-caps:normal;font-variant-numeric:normal;font-feature-settings:normal;text-align:center;writing-mode:lr-tb;text-anchor:middle;stroke-width:0.64245838"
           d="m 143.18449,9.9981505 q -0.23841,-0.2509603 -0.23841,-0.5772087 0,-0.3387963 0.23841,-0.5772086 0.25096,-0.2384123 0.57721,-0.2384123 l 2.52215,0.012548 q 0.0126,-0.2760563 0.0753,-1.9449422 0.0753,-1.681434 0.0251,-3.0366195 -0.0125,-0.3387964 0.22587,-0.5772087 0.23841,-0.2509603 0.56466,-0.2635083 0.3388,-0.012548 0.57721,0.2258642 0.25096,0.2258643 0.26351,0.5646607 0.0502,1.4053776 -0.0251,3.0993596 -0.0627,1.6939819 -0.0753,1.9449422 l 1.89475,0.012548 q 0.3388,0 0.57721,0.2509603 0.23841,0.2384123 0.23841,0.5772087 0,0.3262484 -0.25096,0.5646611 -0.23841,0.238412 -0.56466,0.238412 -0.97874,0 -1.94494,-0.01255 -0.17567,6.286555 0.58976,8.520102 0.27605,0.828169 0.58975,1.003841 0.32625,0.163124 0.42664,0.489372 0.10038,0.326249 -0.0627,0.627401 -0.15058,0.288604 -0.47683,0.388989 -0.32625,0.100384 -0.6274,-0.05019 -1.60615,-0.865813 -1.95749,-4.730602 -0.21332,-2.522151 -0.11293,-6.261459 -1.24226,0 -2.47196,-0.01255 -0.3388,0 -0.57721,-0.2384125 z"
           inkscape:connector-curvature="0" />
        <path
           id="path137"
           style="font-style:normal;font-variant:normal;font-weight:normal;font-stretch:normal;font-size:25.69833374px;font-family:Chilanka;-inkscape-font-specification:'Chilanka, Normal';font-variant-ligatures:normal;font-variant-caps:normal;font-variant-numeric:normal;font-feature-settings:normal;text-align:center;writing-mode:lr-tb;text-anchor:middle;stroke-width:0.64245838"
           d="m 162.52098,9.3832978 q 0.16312,0.3011523 0.0627,0.6274012 -0.0878,0.3137 -0.38899,0.476824 -0.30115,0.163124 -0.61485,0.06274 -2.39667,-0.7277847 -4.27887,0.614853 -1.44303,1.016389 -2.13317,2.823303 -0.67759,1.806914 -0.23841,3.28758 0.43918,1.468118 1.81946,1.95749 1.81947,0.639949 4.88118,-0.476824 0.3137,-0.12548 0.61485,0.0251 0.3137,0.138028 0.42664,0.451728 0.11293,0.313701 -0.0377,0.627401 -0.13803,0.3137 -0.45173,0.426632 -3.60128,1.317542 -5.87247,0.527017 -2.27119,-0.803073 -2.91114,-2.936235 -0.6274,-2.145711 0.23842,-4.441998 0.86581,-2.296286 2.72292,-3.6138277 2.53469,-1.7943661 5.68425,-0.8281689 0.32624,0.087836 0.47682,0.3889884 z"
           inkscape:connector-curvature="0" />
        <path
           id="path139"
           style="font-style:normal;font-variant:normal;font-weight:normal;font-stretch:normal;font-size:25.69833374px;font-family:Chilanka;-inkscape-font-specification:'Chilanka, Normal';font-variant-ligatures:normal;font-variant-caps:normal;font-variant-numeric:normal;font-feature-settings:normal;text-align:center;writing-mode:lr-tb;text-anchor:middle;stroke-width:0.64245838"
           d="M 165.269,17.740275 165.2313,3.4104429 q 0,-0.3262484 0.23841,-0.5646607 0.23842,-0.2509603 0.56467,-0.2509603 0.33879,0 0.5772,0.2509603 0.25096,0.2384123 0.25096,0.5646607 l 0.0125,7.4786171 q 1.43048,-2.4845073 3.55109,-2.7354676 2.13316,-0.2635083 3.85224,1.2297054 1.73163,1.4932142 2.28374,4.0530082 0.74033,3.463252 -1.10423,7.190013 -0.13802,0.288604 -0.46427,0.401536 -0.32625,0.112932 -0.6274,-0.03764 -0.28861,-0.150576 -0.40154,-0.464276 -0.11293,-0.326249 0.0376,-0.627401 1.5936,-3.212292 0.9662,-6.123431 -0.43918,-2.02023 -1.68143,-3.09936 -1.24226,-1.079129 -2.58489,-0.9160048 -1.34264,0.1631242 -2.34648,1.8445578 -1.305,2.183355 -1.45557,6.173624 v 2.45941 q 0,0.301153 -0.22587,0.552113 -0.22586,0.25096 -0.56466,0.263508 -0.32624,0.01255 -0.57721,-0.213316 -0.25096,-0.238412 -0.2635,-0.564661 -0.0502,-1.330089 0,-2.534699 z"
           inkscape:connector-curvature="0" />
        <path
           id="path141"
           style="font-style:normal;font-variant:normal;font-weight:normal;font-stretch:normal;font-size:25.69833374px;font-family:Chilanka;-inkscape-font-specification:'Chilanka, Normal';font-variant-ligatures:normal;font-variant-caps:normal;font-variant-numeric:normal;font-feature-settings:normal;text-align:center;writing-mode:lr-tb;text-anchor:middle;stroke-width:0.64245838"
           d="m 181.06695,16.673694 q 0.17567,0.639949 0.57721,1.192062 1.00384,1.443021 3.17464,1.593597 2.18336,0.138029 5.25762,-1.392829 0.30115,-0.138028 0.6274,-0.0251 0.32625,0.100384 0.46428,0.401536 0.15057,0.301153 0.0376,0.627401 -0.10038,0.3137 -0.40153,0.464277 -3.4758,1.719078 -6.26146,1.530857 -2.77311,-0.18822 -4.24123,-2.258642 -1.24226,-1.76927 -0.9662,-4.128297 0.27606,-2.359027 1.99513,-4.078105 2.221,-2.2084503 5.80974,-2.2084503 1.81946,0 2.96133,0.878361 1.33009,1.0289373 1.15441,2.6727273 -0.16312,1.64379 -2.02023,2.898591 -2.73546,1.857106 -7.96799,1.857106 -0.10038,0 -0.20076,-0.0251 z m -0.13803,-1.530858 q 0.16312,-0.07529 0.33879,-0.07529 4.73061,0 7.06454,-1.581049 1.21715,-0.828169 1.31754,-1.76927 0.0627,-0.677593 -0.60231,-1.179514 -0.65249,-0.514468 -1.89475,-0.514468 -2.93623,0 -4.66786,1.731626 -1.40538,1.405377 -1.55595,3.387963 z"
           inkscape:connector-curvature="0" />
        <path
           id="path143"
           style="font-style:normal;font-variant:normal;font-weight:normal;font-stretch:normal;font-size:25.69833374px;font-family:Chilanka;-inkscape-font-specification:'Chilanka, Normal';font-variant-ligatures:normal;font-variant-caps:normal;font-variant-numeric:normal;font-feature-settings:normal;text-align:center;writing-mode:lr-tb;text-anchor:middle;stroke-width:0.64245838"
           d="m 204.31842,11.027088 q 0.0126,0.338796 -0.22586,0.589756 -0.22587,0.238413 -0.56466,0.250961 -0.3388,0 -0.57721,-0.225865 -0.89091,-0.853265 -2.12062,-1.330089 -1.21715,-0.4893727 -2.20845,-0.5019207 -2.63508,-0.025096 -3.11191,1.4053777 -0.36389,1.091677 0.60231,1.970038 0.9662,0.878361 3.52599,0.677593 1.98259,-0.06274 3.02407,0.476825 1.04149,0.539564 1.53086,1.530857 0.50192,0.991293 0.27606,1.970039 -0.41409,1.83201 -2.27119,2.672727 -1.43048,0.652496 -3.01153,0.514468 -2.98642,-0.288604 -4.94391,-2.007682 -0.25096,-0.213316 -0.27606,-0.552113 -0.0126,-0.351344 0.20077,-0.602304 0.22586,-0.250961 0.56466,-0.263509 0.33879,-0.0251 0.58975,0.188221 1.56851,1.367733 3.77696,1.581049 2.221,0.213317 3.31267,-0.966197 0.79053,-0.865813 0.32625,-1.819462 -0.58976,-1.179513 -2.79821,-1.079129 -2.1959,0.08784 -3.19974,-0.175672 -0.99129,-0.276057 -1.75672,-0.966197 -0.76543,-0.702689 -1.05404,-1.681434 -0.2886,-0.991294 0.0376,-1.982587 0.32625,-0.9912928 1.09168,-1.5685015 1.30499,-0.9787451 3.08681,-0.9536491 3.57618,0.037644 5.92266,2.2837386 0.23841,0.225864 0.25096,0.564661 z"
           inkscape:connector-curvature="0" />
      </g>
      <g
         id="text3745"
         style="font-style:normal;font-variant:normal;font-weight:normal;font-stretch:normal;font-size:30.51245499px;line-height:1.25;font-family:'Heart Full';-inkscape-font-specification:'Heart Full, Normal';font-variant-ligatures:normal;font-variant-caps:normal;font-variant-numeric:normal;font-feature-settings:normal;text-align:start;letter-spacing:0px;word-spacing:0px;writing-mode:lr-tb;text-anchor:start;fill:#000000;fill-opacity:1;stroke:none;stroke-width:0.76281434"
         aria-label="t"
         transform="translate(-4.2582286,-2.2250738)">
        <path
           id="path126"
           d="m 83.392898,5.7691418 q 0.06103,0 0.122049,0 3.569958,-3.081758 6.224541,-3.081758 2.898684,0 4.393794,2.0138221 1.189986,1.6171601 1.189986,3.8140568 0,0.732299 -0.12205,1.3425481 -0.884861,3.3868822 -4.424306,6.7432522 -3.173296,3.020733 -6.895815,4.515844 -0.213587,0.09154 -0.396662,0.122049 -0.213587,0 -0.488199,-0.122049 -3.692007,-1.495111 -6.895815,-4.515844 -3.508932,-3.35637 -4.393794,-6.7432522 -0.152562,-0.6102491 -0.152562,-1.3425481 0,-2.1968967 1.189986,-3.8140568 1.49511,-2.0138221 4.424306,-2.0138221 2.654583,0 6.224541,3.081758 z m 0.945886,5.8583912 q -0.4882,0.274612 -0.884861,0.274612 -0.427175,0 -0.915374,-0.274612 -1.61716,-0.823836 -1.61716,-2.3494589 0,-1.4951103 1.220498,-2.7461209 -2.929196,-2.4715089 -4.97353,-2.4715089 -2.166384,0 -3.325858,1.4951103 -0.945886,1.2204982 -0.945886,2.8986832 0,0.5797367 0.152562,1.0374235 0.793324,3.1122707 4.088669,6.1940287 2.990221,2.776633 6.377103,4.180206 1.342549,-0.488199 4.088669,-2.471509 5.156605,-3.661494 6.255054,-7.9027257 0.12205,-0.4576868 0.12205,-1.0374235 0,-1.678185 -0.945887,-2.8986832 -1.12896,-1.4951103 -3.295345,-1.4951103 -1.434085,0 -2.929195,0.9458861 -0.457687,0.3051246 -2.135872,1.678185 1.312035,1.4645979 1.312035,2.7156085 0,1.4035731 -1.647672,2.2274091 z m 0.09154,-1.8002347 q 0.183075,-0.2440996 0.183075,-0.5187117 0,-0.7933239 -1.128961,-1.8917722 -0.06103,0 -0.09154,0 -1.128961,1.0984483 -1.128961,1.8612597 0,0.3051246 0.183075,0.5492242 0.457686,0.7322987 0.976398,0.7322987 0.518712,0 1.006911,-0.7322987 z"
           inkscape:connector-curvature="0" />
      </g>
    </g>
  </g>
</svg>
